<svg xmlns="http://www.w3.org/2000/svg" viewBox="0 0 5164 5164">
  <g fill-rule="evenodd">
    <path d="M2077 539v707h1009V539c0-94-77-170-170-170h-670c-92 0-169 76-169 170m-442 813c-126 0-224 98-292 291-30 84-53 186-70 303h2615c-53-383-178-593-361-593H1635v-1m257 722-562 561h1124zm-631-22c-12 111-17 234-17 367l2 151 517-517-502-1m1883 0H2020l563 561zm128 22-561 561h1123zm128-22 517 517c2-52 2-102 2-150 0-134-5-257-17-367h-502m-87 1793-632 950h589c63 0 138-73 214-206 78-137 153-338 221-580l42-164h-434m-128 0H1979l604 907Zm-1333 0h-434l42 164c67 242 143 443 221 580 75 134 151 206 214 206h589l-632-950m419-605a312 312 0 1 1 624 0 312 312 0 0 1-624 0zm-1016-499c20 327 69 678 139 998h2376c70-319 118-670 139-998H1255"/>
    <path d="M2583 3035a206 206 0 1 0 0 413 206 206 0 0 0 0-413"/>
  </g>
</svg>
