<?xml version="1.0" encoding="UTF-8" standalone="no"?>
<!-- Created with Inkscape (http://www.inkscape.org/) -->

<svg
   version="1.1"
   id="svg1"
   width="5164"
   height="5164"
   viewBox="0 0 5164 5164"
   sodipodi:docname="vecteezy_artifact-icon-style_21189953.eps"
   xmlns:inkscape="http://www.inkscape.org/namespaces/inkscape"
   xmlns:sodipodi="http://sodipodi.sourceforge.net/DTD/sodipodi-0.dtd"
   xmlns="http://www.w3.org/2000/svg"
   xmlns:svg="http://www.w3.org/2000/svg">
  <defs
     id="defs1" />
  <sodipodi:namedview
     id="namedview1"
     pagecolor="#ffffff"
     bordercolor="#000000"
     borderopacity="0.25"
     inkscape:showpageshadow="2"
     inkscape:pageopacity="0.0"
     inkscape:pagecheckerboard="0"
     inkscape:deskcolor="#d1d1d1">
    <inkscape:page
       x="0"
       y="0"
       inkscape:label="1"
       id="page1"
       width="5164"
       height="5164"
       margin="0"
       bleed="0" />
  </sodipodi:namedview>
  <g
     id="g1"
     inkscape:groupmode="layer"
     inkscape:label="1">
    <g
       id="group-R5">
      <path
         id="path2"
         d="m 15579,34688 v -5303 h 7565 v 5303 c 0,701 -575,1277 -1277,1277 h -5020 c -693,-1 -1268,-576 -1268,-1277"
         style="fill:#000000;fill-opacity:1;fill-rule:evenodd;stroke:none"
         transform="matrix(0.13333333,0,0,-0.13333333,0,5164)" />
      <path
         id="path3"
         d="m 12261,28589 c -946,0 -1678,-733 -2191,-2183 -221,-630 -394,-1395 -520,-2269 h 4633 v 0 0 0 h 10338 8 4633 c -402,2868 -1340,4444 -2711,4444 h -2923 -8345 -2923 v 8 h 1"
         style="fill:#000000;fill-opacity:1;fill-rule:evenodd;stroke:none"
         transform="matrix(0.13333333,0,0,-0.13333333,0,5164)" />
      <path
         id="path4"
         d="M 14192,23175 9976,18967 h 8432 z"
         style="fill:#000000;fill-opacity:1;fill-rule:evenodd;stroke:none"
         transform="matrix(0.13333333,0,0,-0.13333333,0,5164)" />
      <path
         id="path5"
         d="m 9456,23341 c -87,-835 -126,-1757 -126,-2750 0,-370 8,-749 16,-1135 l 3877,3877 -3767,8 v 0"
         style="fill:#000000;fill-opacity:1;fill-rule:evenodd;stroke:none"
         transform="matrix(0.13333333,0,0,-0.13333333,0,5164)" />
      <path
         id="path6"
         d="m 23577,23341 h -8424 l 4216,-4208 z"
         style="fill:#000000;fill-opacity:1;fill-rule:evenodd;stroke:none"
         transform="matrix(0.13333333,0,0,-0.13333333,0,5164)" />
      <path
         id="path7"
         d="m 24538,23175 -4208,-4208 h 8424 z"
         style="fill:#000000;fill-opacity:1;fill-rule:evenodd;stroke:none"
         transform="matrix(0.13333333,0,0,-0.13333333,0,5164)" />
      <path
         id="path8"
         d="m 25499,23341 3877,-3877 c 16,386 16,764 16,1127 0,1001 -39,1923 -126,2750 h -3767 v 0"
         style="fill:#000000;fill-opacity:1;fill-rule:evenodd;stroke:none"
         transform="matrix(0.13333333,0,0,-0.13333333,0,5164)" />
      <path
         id="path9"
         d="M 24845,9889 20110,2766 h 4413 c 473,0 1040,552 1608,1544 583,1032 1150,2537 1655,4350 110,402 213,812 315,1229 h -3256 v 0"
         style="fill:#000000;fill-opacity:1;fill-rule:evenodd;stroke:none"
         transform="matrix(0.13333333,0,0,-0.13333333,0,5164)" />
      <path
         id="path10"
         d="M 23884,9889 H 14846 L 19369,3089 Z"
         style="fill:#000000;fill-opacity:1;fill-rule:evenodd;stroke:none"
         transform="matrix(0.13333333,0,0,-0.13333333,0,5164)" />
      <path
         id="path11"
         d="m 13892,9889 h -3254 c 102,-418 205,-827 315,-1229 496,-1812 1072,-3317 1655,-4350 559,-1001 1135,-1544 1608,-1544 h 4413 l -4737,7123 v 0"
         style="fill:#000000;fill-opacity:1;fill-rule:evenodd;stroke:none"
         transform="matrix(0.13333333,0,0,-0.13333333,0,5164)" />
      <path
         id="path12"
         d="m 17029,14428 c 0,1292 1048,2340 2340,2340 1292,0 2340,-1048 2340,-2340 0,-1292 -1048,-2340 -2340,-2340 -1292,0 -2340,1048 -2340,2340 z m -7620,3743 c 150,-2451 520,-5083 1048,-7486 h 3648 v 0 h 14168 c 528,2395 890,5027 1048,7486 H 19369 9409 v 0"
         style="fill:#000000;fill-opacity:1;fill-rule:evenodd;stroke:none"
         transform="matrix(0.13333333,0,0,-0.13333333,0,5164)" />
      <path
         id="path13"
         d="m 19369,15965 c -851,0 -1544,-693 -1544,-1544 0,-851 693,-1544 1544,-1544 851,0 1544,693 1544,1544 -8,858 -701,1544 -1544,1544"
         style="fill:#000000;fill-opacity:1;fill-rule:evenodd;stroke:none"
         transform="matrix(0.13333333,0,0,-0.13333333,0,5164)" />
    </g>
  </g>
</svg>
