<?xml version="1.0" encoding="iso-8859-1"?>
<!-- Uploaded to: SVG Repo, www.svgrepo.com, Generator: SVG Repo Mixer Tools -->
<svg fill="#000000" height="800px" width="800px" version="1.1" id="Layer_1" xmlns="http://www.w3.org/2000/svg" xmlns:xlink="http://www.w3.org/1999/xlink" 
	 viewBox="0 0 512.002 512.002" xml:space="preserve">
<g>
	<g>
		<path d="M402.019,335.184l-79.586-78.757l79.249-80.083c11.88,9.077,26.305,14.017,41.466,14.069c0.08,0,0.158,0,0.238,0
			c18.225,0,35.331-7.072,48.186-19.929c26.637-26.638,26.51-70.108-0.285-96.904c-10.789-10.788-24.281-17.245-38.29-19.382
			c-1.994-13.179-7.824-24.279-18.078-34.532C408.806-6.448,366.44-6.57,340.476,19.389c-23.759,23.76-25.669,61.264-5.803,87.471
			l-7.225,7.275c-3.603,3.628-3.582,9.49,0.044,13.094c1.806,1.794,4.165,2.689,6.524,2.689c2.38,0,4.759-0.912,6.568-2.734
			l13.283-13.374c3.595-3.619,3.584-9.464-0.022-13.07c-18.894-18.894-19.018-49.515-0.278-68.256
			c18.744-18.74,49.362-18.618,68.257,0.277c6.65,6.651,10.538,13.268,12.301,21.178c-14.557,1.795-28.619,8.234-39.745,19.36
			c-3.617,3.616-3.617,9.477-0.001,13.092c3.617,3.616,9.478,3.617,13.094,0c19.418-19.418,51.145-19.289,70.717,0.284
			c19.574,19.576,19.703,51.3,0.284,70.719c-9.357,9.358-21.814,14.505-35.094,14.505c-0.058,0-0.117,0-0.175,0
			c-13.369-0.046-25.958-5.297-35.451-14.787c-1.736-1.737-4.09-2.712-6.546-2.712c-0.009,0-0.016,0-0.025,0
			c-2.464,0.006-4.823,0.995-6.557,2.747L159.686,394.56c-3.582,3.621-3.569,9.457,0.033,13.059
			c18.896,18.894,19.018,49.513,0.276,68.256c-18.74,18.742-49.36,18.619-68.255-0.277c-6.717-6.717-10.651-13.333-12.438-21.162
			c14.605-1.771,28.722-8.215,39.882-19.375c3.616-3.616,3.616-9.478,0-13.092c-3.617-3.616-9.478-3.616-13.094,0
			c-19.416,19.417-51.142,19.289-70.717-0.284c-9.49-9.49-14.743-22.08-14.787-35.449c-0.046-13.346,5.106-25.871,14.505-35.269
			c9.357-9.358,21.814-14.505,35.094-14.505c0.058,0,0.117,0,0.175,0c13.368,0.046,25.957,5.297,35.448,14.789
			c1.743,1.742,4.165,2.718,6.572,2.712c2.464-0.006,4.823-0.995,6.557-2.747l152.59-154.242c3.596-3.635,3.565-9.497-0.072-13.092
			c-3.634-3.597-9.497-3.565-13.092,0.07l-4.535,4.585l-76.956-76.155c20.493-26.897,18.567-65.465-5.852-89.885
			c-26.637-26.637-70.11-26.511-96.906,0.284C63.327,33.569,56.87,47.063,54.734,61.07c-13.18,1.994-24.28,7.825-34.533,18.08
			c-26.112,26.113-26.237,68.479-0.275,94.441c23.767,23.767,61.278,25.671,87.484,5.794l78.56,77.744l-74.085,74.886
			c-11.879-9.077-26.303-14.017-41.464-14.069c-0.08,0-0.159,0-0.238,0c-18.225,0-35.331,7.072-48.185,19.929
			c-12.913,12.912-19.99,30.109-19.929,48.425c0.062,18.291,7.239,35.507,20.21,48.479c10.75,10.75,24.183,17.193,38.136,19.352
			c2.005,13.105,7.886,24.214,18.233,34.561c13.109,13.109,30.308,19.667,47.475,19.667c17.035-0.001,34.037-6.46,46.968-19.391
			c23.764-23.765,25.674-61.276,5.794-87.484l75.679-76.475l77.986,77.175c-9.078,11.879-14.017,26.303-14.069,41.465
			c-0.062,18.314,7.015,35.512,19.928,48.425c12.857,12.857,29.961,19.929,48.186,19.929c0.078,0,0.159,0,0.238,0
			c18.291-0.062,35.509-7.24,48.479-20.213c10.494-10.494,17.193-23.769,19.403-38.143c13.083-2.012,24.178-7.891,34.512-18.225
			c26.112-26.115,26.237-68.482,0.275-94.442C465.737,317.214,428.224,315.305,402.019,335.184z M114.334,160.187
			c-3.622-3.582-9.455-3.569-13.059,0.035c-18.892,18.893-49.511,19.019-68.256,0.276c-18.742-18.742-18.618-49.362,0.276-68.256
			c6.65-6.65,13.268-10.538,21.177-12.302c1.795,14.557,8.232,28.62,19.359,39.745c3.616,3.616,9.477,3.617,13.094,0
			c3.616-3.616,3.616-9.477,0-13.092C67.507,87.173,67.634,55.45,87.207,35.874c19.576-19.575,51.303-19.702,70.719-0.284
			c19.418,19.418,19.291,51.143-0.284,70.719c-1.742,1.742-2.717,4.107-2.711,6.571s0.995,4.824,2.747,6.557l83.13,82.264
			l-41.814,42.266L114.334,160.187z M476.134,422.329c-6.705,6.707-13.312,10.638-21.126,12.43
			c-1.815-15.069-8.531-28.995-19.41-39.874c-3.618-3.617-9.479-3.614-13.094,0c-3.616,3.616-3.616,9.478,0.001,13.092
			c9.398,9.399,14.549,21.924,14.503,35.269c-0.044,13.369-5.297,25.958-14.789,35.449c-9.49,9.492-22.08,14.743-35.448,14.789
			c-0.059,0-0.116,0-0.175,0c-13.279,0-25.738-5.148-35.094-14.505c-9.399-9.398-14.549-21.924-14.505-35.269
			c0.046-13.369,5.297-25.958,14.787-35.449c1.743-1.742,2.718-4.107,2.712-6.571c-0.006-2.464-0.995-4.824-2.747-6.557
			l-84.163-83.286l41.819-42.26l85.686,84.794c3.623,3.582,9.456,3.57,13.059-0.035c18.892-18.893,49.513-19.018,68.256-0.277
			C495.151,372.814,495.028,403.433,476.134,422.329z"/>
	</g>
</g>
<g>
	<g>
		<path d="M316.964,137.835c-3.629-3.602-9.489-3.584-13.094,0.046l-4.714,4.748c-3.602,3.628-3.581,9.49,0.046,13.092
			c1.807,1.794,4.165,2.689,6.524,2.689c2.38,0,4.759-0.912,6.57-2.734l4.714-4.748C320.611,147.299,320.59,141.437,316.964,137.835
			z"/>
	</g>
</g>
</svg>