<svg xmlns="http://www.w3.org/2000/svg" xml:space="preserve" viewBox="0 0 512 512">
  <path d="m402 335-80-79 80-80a68 68 0 0 0 90-6 69 69 0 0 0-39-116 67 67 0 0 0-113-35 67 67 0 0 0-5 88l-8 7a9 9 0 0 0 14 13l13-13c3-4 3-10 0-13a48 48 0 0 1 0-69c18-18 49-18 68 1 6 6 10 13 12 21-14 2-28 8-40 19a9 9 0 1 0 13 13c20-19 52-19 71 1 20 19 20 51 0 70-9 10-21 15-35 15-13 0-26-5-35-15-2-2-4-3-7-3-2 0-5 1-6 3L160 395c-4 3-4 9 0 13 19 19 19 49 0 68a48 48 0 0 1-68 0c-7-7-11-14-13-22 15-1 29-8 40-19a9 9 0 1 0-13-13 50 50 0 0 1-85-36 49 49 0 0 1 49-50c14 1 26 6 36 15l6 3c3 0 5-1 7-3l153-154a9 9 0 1 0-14-13l-4 5-77-77c20-27 18-65-6-90A69 69 0 0 0 55 61c-13 2-25 8-35 18a67 67 0 0 0 0 95c24 23 61 25 87 5l79 78-74 75c-12-9-26-14-42-14a68 68 0 0 0-68 68 68 68 0 0 0 58 68c2 13 8 24 19 35a67 67 0 0 0 94 0c24-24 26-61 6-88l76-76 78 77a68 68 0 0 0 54 110 68 68 0 0 0 68-58c13-2 24-8 34-19 26-26 26-68 1-94a67 67 0 0 0-88-6zM114 160c-3-3-9-3-13 0a48 48 0 0 1-68 0 48 48 0 0 1 0-68c7-6 14-10 21-12 2 14 9 29 20 40a9 9 0 1 0 13-13 50 50 0 0 1 0-71 50 50 0 1 1 70 70 9 9 0 0 0 1 13l83 83-42 42-85-84zm362 262c-7 7-13 11-21 13-2-15-9-29-19-40a9 9 0 0 0-13 13 50 50 0 0 1-36 86v-1a49 49 0 0 1-50-49c0-14 5-26 15-36a9 9 0 0 0 0-13l-84-83 41-42 86 84c4 4 10 4 13 0 19-19 50-19 68 0 19 19 19 49 0 68z"/>
  <path d="M317 138c-4-4-10-4-13 0l-5 5a9 9 0 0 0 13 13l5-5c4-4 4-10 0-13z"/>
</svg>
