<svg xmlns="http://www.w3.org/2000/svg" xml:space="preserve" viewBox="0 0 900 980">
  <path fill="#010101" d="m395 981-19-3A420 420 0 0 1 66 782l-2-4 205-118q54 75 146 84v237zm43 0V744q93-8 145-84l206 119-38 51a412 412 0 0 1-243 143l-50 8zM1 529l2-10q7-86 48-163l2-2 205 118q-39 84 0 168L52 759l-18-38A421 421 0 0 1 2 551l-1-7zm900-425q-9 23-29 35c-16 12-32 22-43 38L726 73q24-24 43-52 11-14 28-20h12l24 13q31 25 56 56l11 19 1 2zM1 544l1 7zm128-172-66-39 29-39a423 423 0 0 1 332-163q15 0 14 14l-1 210q1 13-13 13a187 187 0 0 0-152 81l-3 3zm538 310-71-42 13-41q16-68-16-131l-2-2c-4-9-4-8 4-13l14-12 13-11 154-89q13-8 20 5a415 415 0 0 1 5 409l-2 3zm-44-282-30 30q-9 9-19 10l-55 8q-12 1-21 9-19 19-44 27l-13 3c-15 1-27-10-26-25q2-19 13-36 8-13 18-25 6-6 7-14l8-56q2-13 12-24l142-142 2-2 121 121zm-7-269q-7-21 7-35l25-25 10-7q18-11 35 5l140 139c12 13 12 31 0 43l-30 30q-14 12-30 5l-11-7-139-138zM432 509l33 63q8 17 12 35c6 33-18 61-52 62-45 2-72-40-52-82q18-39 39-77 8-14 20-1"/>
</svg>