<svg xmlns="http://www.w3.org/2000/svg" viewBox="0 0 512 512">
  <path fill="#000" d="m391 19 10 8 2 2 5 6 4 4 10 10 2-1 2-2 2-2c5-3 9-4 15-3 5 2 9 4 12 9s3 10 1 16l-5 6-1 5a113 113 0 0 0 6 6l2 2 4 4 2-1c3-1 4-2 8-1l8 8 3 2a806 806 0 0 1 5 5 781 781 0 0 0 7 8l5 5 3 2c5 5 5 5 6 9-1 5-4 7-8 11l-2 2a619 619 0 0 1-4 4 537 537 0 0 0-7 7l-4 4-2 2c-3 3-5 5-9 5-5-2-8-5-12-8l-2-3a718 718 0 0 1-5-4 739 739 0 0 0-7-7l-5-5-2-2c-3-3-5-5-6-9l2-8-13-13-7 6 5 9a107 107 0 0 1 0 106l-1 2c-9 16-24 28-37 41l-9 9-19 20-13 12a65375 65375 0 0 1-34 34l-2 2-4 5-2 2-3 2a35014 35014 0 0 0-35 36 33111 33111 0 0 1-36 36l-21 20a7194 7194 0 0 1-17 18l-9 9-8 8a686 686 0 0 0-4 4c-7 7-14 12-24 12h-3c-11-2-18-10-26-17l-3-4-10-9-10-10a7745 7745 0 0 1-16-16 6207 6207 0 0 0-19-19 7033 7033 0 0 1-16-17l-10-9-9-10a599 599 0 0 0-4-3c-7-7-12-13-14-23l1-4-1-3c2-10 8-16 15-22l3-4 9-8 9-9 18-18 14-15 2-2 5-4a44504 44504 0 0 1 39-40l37-36a33642 33642 0 0 1 41-42l2-2 15-15a7438 7438 0 0 1 18-17l9-9c24-25 49-44 85-44 23 0 44 3 62 17h4l6-6-3-2-9-10a1360 1360 0 0 0-4-4 1328 1328 0 0 1-6-5l-1-2c-5-5-8-9-8-16 0-6 1-10 5-14 6-5 14-6 21-3"/>
  <path fill="#fff" d="m279 205 14 13 2 2 7 7 4 4 12 12 13 13a53207 53207 0 0 1 24 24l-6 9-3 2-3 3-2 2-7 7c-17-14-32-30-48-45a1835 1835 0 0 0-7-7l-9-9a606 606 0 0 0-3-3 514 514 0 0 1-5-5l-2-3-2-4 5-7 3-2 3-3 3-3 7-7M177 307l7 5 2 2 2 2 2 2a3133 3133 0 0 1 7 7l5 5 13 13 13 13 26 26a3948 3948 0 0 1-4 5l-6 6-2 2-2 2-2 2-5 5-7-5-2-2-2-2-2-2a3292 3292 0 0 1-7-7l-5-5-13-13-13-13-26-26 3-3 1-2 6-6 2-2 2-2 2-2 5-5m-20-34 10 8 2 2c7 8 7 8 7 13-1 4-4 6-7 9l-1 2-6 5a2886 2886 0 0 0-4 4c-10 10-10 10-14 10-5 0-7-3-11-7l-3-3c-9-9-9-9-9-13s3-6 6-10l2-2a510 510 0 0 1 4-3l6-6a2638 2638 0 0 1 4-4l1-2c5-4 7-6 13-3m101-102 10 9 3 3 2 2 2 3c2 3 3 4 2 8l-3 4-2 2-2 2-2 2a573 573 0 0 1-8 8l-3 3c-7 7-7 7-11 8-3 0-4 0-7-3l-2-2-2-2a730 730 0 0 0-3-3l-3-3-2-2-5-7c0-5 3-7 7-11l3-3a879 879 0 0 1 8-8l3-3 5-5c4-3 5-3 10-2m-42-28 9 7 2 1 4 5 3 3 8 8-14 15-3 3a2975 2975 0 0 1-5 5l-16-15-3-3-6-6 6-9 3-2 3-3 2-2 7-7M115 244l16 15 3 3 6 6-6 9-3 2-3 3-2 2-7 7-16-15-3-3-6-6 6-9 3-2 3-3 2-2 7-7"/>
</svg>