<svg xmlns="http://www.w3.org/2000/svg" xml:space="preserve" viewBox="0 0 512 512">
  <circle cx="381.7" cy="236.2" r="9.1"/>
  <path d="M489 144v-24c0-40-32-72-71-72h-46c-40 0-72 32-72 72v26l-15 1-28-48c-2-3-6-5-9-4-2 0-35 6-68 27-43 27-66 66-68 114l-6 1c-7 0-15-4-19-10-15-20-39-46-75-46l-3 1a9 9 0 0 0-9 11l4 12c34 100 34 100 0 200l-4 11a9 9 0 0 0 9 12h3c36 0 60-26 75-46 4-6 12-9 19-9 8 0 15 3 20 8 42 47 121 83 183 83a159 159 0 0 0 9-318v-26c0-30 24-54 54-54h46c29 0 53 24 53 54v23a33 33 0 1 0 18 1zm-299-7c22-14 44-20 55-23l21 37c-49 10-101 37-134 71 5-35 24-64 58-85zm260 168-1 16-9 4-27-41a9 9 0 0 0-16 1c-5 11-11 39-13 51h-15l-1-1-1-2c-2-2-6-10-8-34l-1-33a9 9 0 0 0-15-7c-21 20-30 43-34 57-19-12-29-25-29-25a9 9 0 0 0-14 10c0 1 16 24 49 39 16 7 37 14 64 14 20 0 42-3 66-12-16 60-71 104-136 104-58 0-131-33-170-77-8-9-20-14-33-14s-25 6-34 16c-17 23-33 35-50 38 34-103 34-106 0-209 17 4 33 16 50 38 9 11 21 17 34 17s25-6 33-15c39-43 112-76 170-76 78 0 141 63 141 141zm-29 25-18 4 5-24 13 20zm-74 2-22-7c2-7 6-21 15-35a330 330 0 0 0 7 42zm132-142a15 15 0 1 1 0-30 15 15 0 0 1 0 30z"/>
  <path d="M282 414c1 3 3 5 5 6a90 90 0 0 0 47 6 9 9 0 0 0-2-18c-14 3-27-1-33-3l-9-39c24 14 54 18 55 18a9 9 0 0 0 3-17c-1-1-47-7-66-29a9 9 0 0 0-16 8l16 68z"/>
</svg>
