<?xml version="1.0" encoding="iso-8859-1"?>
<!-- Uploaded to: SVG Repo, www.svgrepo.com, Generator: SVG Repo Mixer Tools -->
<svg fill="#000000" height="800px" width="800px" version="1.1" id="Layer_1" xmlns="http://www.w3.org/2000/svg" xmlns:xlink="http://www.w3.org/1999/xlink" 
	 viewBox="0 0 511.999 511.999" xml:space="preserve">
<g>
	<g>
		<g>
			<circle cx="381.734" cy="236.177" r="9.062"/>
			<path d="M489.344,143.787v-23.984c0-39.515-32.147-71.662-71.662-71.662h-45.846c-39.513,0-71.661,32.147-71.661,71.662v26.018
				c-5.04,0.262-10.155,0.712-15.339,1.386l-27.788-48.095c-1.906-3.3-5.675-5.053-9.426-4.389
				c-1.377,0.244-34.124,6.211-67.242,27.02c-42.914,26.964-66.367,66.387-68.122,114.271c-1.882,0.435-3.817,0.666-5.777,0.666
				c-7.836,0.001-15.055-3.534-19.806-9.697C71.611,207.437,47.518,181.45,12.38,181.45c-1.248,0-2.52,0.033-3.78,0.096
				c-2.826,0.145-5.422,1.602-7.02,3.939c-1.596,2.337-2.009,5.284-1.117,7.97L4.238,204.8c33.282,99.908,33.282,99.908,0,199.815
				l-3.775,11.344c-0.893,2.686-0.479,5.633,1.117,7.97c1.597,2.336,4.193,3.794,7.02,3.939c1.26,0.065,2.532,0.096,3.78,0.096
				c35.138,0,59.231-25.986,74.297-45.533c4.751-6.162,11.97-9.696,19.807-9.696c7.356,0,14.403,3.171,19.334,8.698
				c41.917,46.99,120.772,82.425,183.422,82.425c87.756,0,159.15-71.395,159.15-159.15c0-84.714-66.533-154.173-150.089-158.886
				v-26.018c0-29.522,24.016-53.538,53.538-53.538h45.846c29.52,0,53.537,24.016,53.537,53.538v23.33
				c-14.294,3.557-24.92,16.496-24.92,31.877c0,18.114,14.736,32.85,32.85,32.85s32.85-14.736,32.85-32.85
				C511.999,160.454,502.481,148.087,489.344,143.787z M189.555,137.384c22.15-14.021,44.64-20.805,55.133-23.44l21.13,36.571
				c-49.312,10.652-100.986,37.53-134.095,71.202C136.968,186.706,156.356,158.399,189.555,137.384z M450.265,304.708
				c0,5.54-0.332,11.002-0.956,16.378c-3.262,1.318-6.506,2.558-9.726,3.702c-5.349-7.414-16.801-25.487-26.309-41.197
				c-1.767-2.92-5.016-4.598-8.429-4.344c-3.403,0.255-6.375,2.4-7.688,5.55c-4.781,11.476-10.783,39.644-13.127,51.151
				c-4.939,0.159-9.806,0.059-14.607-0.275c-0.293-0.002-0.611-0.141-1.331-0.911c-0.224-0.239-1.031-1.108-1.393-1.619
				c-1.503-2.122-5.5-9.915-7.577-34.525c-1.422-16.843-1.178-32.681-1.175-32.838c0.061-3.659-2.084-6.995-5.438-8.458
				c-3.353-1.462-7.259-0.766-9.898,1.768c-20.636,19.811-30.071,43.329-34.055,56.709c-18.629-11.877-28.097-24.727-28.212-24.885
				c-2.919-4.05-8.567-4.978-12.628-2.068c-4.069,2.915-5.006,8.575-2.091,12.644c0.668,0.933,16.744,23.037,48.935,38.309
				c15.941,7.562,37.647,14.175,64.818,14.175c19.252,0,41.259-3.343,65.883-12c-16.386,59.735-71.156,103.76-136.022,103.76
				c-58.021,0-131.062-32.83-169.897-76.366c-8.365-9.378-20.342-14.756-32.859-14.756c-13.502,0-25.953,6.108-34.161,16.757
				c-17.356,22.517-33.262,34.476-50.438,37.621c34.26-102.863,34.26-105.698,0-208.561c17.176,3.144,33.082,15.104,50.438,37.621
				c8.209,10.65,20.66,16.757,34.161,16.757c12.516-0.001,24.493-5.379,32.859-14.757c38.836-43.537,111.874-76.367,169.897-76.367
				C387.001,163.681,450.265,226.946,450.265,304.708z M421.433,330.369c-6.27,1.623-12.445,2.888-18.529,3.813
				c1.507-7.141,3.464-15.95,5.467-23.941C413.562,318.549,417.918,325.26,421.433,330.369z M346.501,332.068
				c-7.389-1.843-14.586-4.332-21.584-7.466c1.786-6.933,6.144-20.514,15.448-34.605c0.189,3.508,0.437,7.208,0.766,10.968
				C342.364,315.091,344.271,325.003,346.501,332.068z M479.15,189.734c-8.121,0-14.726-6.605-14.726-14.726
				c0-8.12,6.605-14.726,14.726-14.726c8.12,0,14.726,6.606,14.726,14.726C493.875,183.129,487.27,189.734,479.15,189.734z"/>
			<path d="M282.29,413.811c0.63,2.698,2.459,4.96,4.966,6.141c0.745,0.35,15.751,7.287,35.38,7.286
				c3.763,0,7.698-0.255,11.733-0.86c4.95-0.743,8.36-5.357,7.618-10.306c-0.743-4.949-5.359-8.359-10.306-7.618
				c-13.962,2.094-26.678-1.291-32.826-3.406l-9-38.569c24.485,13.614,53.904,17.782,55.538,18.005
				c4.96,0.671,9.52-2.793,10.199-7.748c0.68-4.956-2.788-9.525-7.743-10.208c-0.466-0.065-46.739-6.666-65.735-28.662
				c-2.725-3.156-7.252-4.044-10.969-2.153c-3.715,1.892-5.661,6.075-4.714,10.136L282.29,413.811z"/>
		</g>
	</g>
</g>
</svg>