<?xml version="1.0" encoding="utf-8"?>
<!-- Svg Vector Icons : http://www.onlinewebfonts.com/icon -->
<!DOCTYPE svg PUBLIC "-//W3C//DTD SVG 1.1//EN" "http://www.w3.org/Graphics/SVG/1.1/DTD/svg11.dtd">
<svg version="1.1" xmlns="http://www.w3.org/2000/svg" xmlns:xlink="http://www.w3.org/1999/xlink" x="0px" y="0px" viewBox="0 0 256 256" enable-background="new 0 0 256 256" xml:space="preserve">
<metadata> Svg Vector Icons : http://www.onlinewebfonts.com/icon </metadata>
<g><g><g><path fill="#000000" d="M141.4,10.7c-0.9,0.9-0.9,2-0.1,3.1c0.6,0.9,18.8,9.1,20.1,9.1c0.5,0,1.2-0.4,1.7-0.9c0.7-0.7,0.8-1.2,0.4-2.2c-0.4-1.1-1.8-1.9-9.9-5.5c-5.2-2.3-9.9-4.2-10.5-4.3C142.5,10,141.8,10.3,141.4,10.7z"/><path fill="#000000" d="M141.1,22.8c-1.5,3.2-2.8,6-2.9,6.3c-0.1,0.5,13.2,6.3,13.6,5.9c0.4-0.3,4.9-10.6,5.1-11.5c0.1-0.6-4.8-3.1-11.5-5.9l-1.5-0.6L141.1,22.8z"/><path fill="#000000" d="M132.4,30.4c-0.6,0.3-1.6,1.8-2.4,3.3c-5.7,11.8-39.2,86.8-39.2,87.5c0,2.6,1.1,3.4,10.1,7.5c4.8,2.2,9.3,4,9.9,4c2.4,0,3.7-2,10.1-16.3l6.2-13.8l-1.9-2.3c-4-4.7-5.7-8.9-6.1-14.8c-0.3-4.5,0.9-10.1,3.2-14c1.9-3.4,5.9-7.3,9.2-9.2c3.2-1.8,8.9-3.3,12.6-3.3h2.8l3.8-8.3c2.1-4.6,3.8-8.8,3.8-9.2c0-2.6-1.1-3.4-10.1-7.5c-4.8-2.2-9.2-4-9.8-3.9C134,29.9,133,30.1,132.4,30.4z"/><path fill="#000000" d="M138.4,63.3c-7.7,2.1-14,9-15.4,16.9c-1.8,10.7,5.3,21.6,15.9,24.1c7.6,1.8,14.4-0.1,19.9-5.6c3-3,4.6-5.8,5.6-9.6c1.9-7.3-0.1-14.7-5.6-20.2C153.4,63.4,145.7,61.3,138.4,63.3z M147.3,73.3c4,1.2,7.7,6.3,7.7,10.5c0,5.7-5.3,11.1-11.1,11.1c-2.9,0-5.3-1.1-7.6-3.5c-4.7-4.7-4.7-10.6,0-15.2C139.5,72.9,143,72,147.3,73.3z"/><path fill="#000000" d="M168.6,85.2c-0.5,6.6-2.9,11.9-7.7,16.6c-2.4,2.3-7.7,5.5-9.2,5.5c-0.3,0,1.1,1.7,3,3.8c9.1,9.8,13.7,20.4,14.3,32.9c0.4,8.9-1.1,16.7-4.7,23.9c-2.4,4.7-4.1,7-8.1,11l-3.6,3.6l1.2,0.6c3,1.6,7.5,7.5,7.5,10c0,2.1,1.1,1.6,7.2-3.1c12.2-9.4,20.7-23.8,23.4-39.8c4.2-24-2.8-47-19.5-65l-3.6-3.9L168.6,85.2z"/><path fill="#000000" d="M90.5,128.2l-0.9,1.9l1.1,1.2l1.1,1.2l-2.3,4.4l-2.3,4.4l7,3.2c3.8,1.8,7.1,3.2,7.2,3.3c0.2,0,0.7-1,1.2-2.3c0.5-1.3,1.2-3.5,1.8-4.7c0.9-2.1,1-2.2,2.5-2.1c1.4,0.1,1.6,0,2.4-1.8l0.9-2l-1.9-0.8c-1.1-0.5-4.4-2-7.5-3.5c-3-1.4-6.4-3-7.5-3.5l-2-0.8L90.5,128.2z"/><path fill="#000000" d="M66.7,147.5c-0.6,1.3-1.8,3.8-2.5,5.6c-0.8,1.8-1.4,3.2-1.3,3.3c0.1,0.1,37.4,17.1,41.8,19l2.4,1.1l0.7-1.6c0.6-1.5,0.7-1.6,1.8-1.1c0.6,0.3,1.2,0.7,1.2,0.9c0,0.2-1.2,2.9-2.6,6.1l-2.6,5.8l-2-1c-1.2-0.6-2-1.3-2-1.8c0-1.9-2-3.1-15.6-9.4c-7.6-3.5-14.3-6.3-15-6.3c-1.8,0-4,2.2-4.3,4.4c-0.4,3.1,0.3,3.6,15.5,10.6c7.6,3.5,14.2,6.3,14.8,6.3c0.5,0,1.4-0.2,2-0.5c0.9-0.4,1.5-0.3,3,0.5l1.9,1l-1,2.7c-1.2,3.3-0.9,4.8,1.5,7.1c3.6,3.4,11.6,5.3,21.5,4.9c3.4-0.1,6.2-0.3,6.3-0.4c0.1-0.1-0.2-1.4-0.7-2.9c-0.9-2.7-1-7.5-0.2-9.5c0.3-0.6,0-0.7-2.1-0.4c-4.1,0.6-7.9,0.5-7.6-0.2c0.1-0.3,2-4.6,4.2-9.5c2.2-4.9,4-9.1,4.1-9.4c0-0.3-3.2-2-7.3-3.9l-7.4-3.4l-1,2c-0.8,1.6-1.2,1.9-2,1.8c-1.4-0.4-1.5-0.9-0.7-2.5c0.4-0.8,0.7-1.5,0.6-1.5c-0.1-0.1-31.2-14.2-39.2-17.8l-5-2.3L66.7,147.5z"/><path fill="#000000" d="M143,185.2c-2.1,0.7-3.9,1.8-5.3,3.4c-2.5,2.6-3.2,4.4-3.2,8.2s0.7,5.6,3.2,8.2c2.4,2.6,4.7,3.5,8.6,3.5c3.9,0,6.1-0.9,8.6-3.5c2.5-2.6,3.2-4.4,3.2-8.2c0-2.5-0.3-3.9-0.9-5.1c-1.2-2.3-3.4-4.5-5.6-5.6C149.5,185,144.8,184.5,143,185.2z M149.2,190.5c5,2.4,5,9.7,0.1,12.2c-4.9,2.5-10.6-1.3-9.9-6.8C139.9,191.2,144.8,188.5,149.2,190.5z"/><path fill="#000000" d="M161,201.7c-0.8,2.5-3.4,5.9-5.9,7.7c-5.5,3.9-12.4,3.9-17.9,0l-2.3-1.6l-1.1,2.4c-2.2,5-3.2,6.5-6.1,9.5c-3.5,3.6-7.8,5.9-13.6,7.2c-5.2,1.2-16.6,1.1-28.4-0.3c-4.9-0.6-10.8-1.1-13.1-1.1l-4.1-0.1l-0.6,2.3c-0.9,3.4-1.2,11.9-0.5,15.2l0.6,2.8l55.8,0.1c51.6,0.1,55.9,0,56.2-0.6c0.2-0.5,0.4-2.3,0.6-4.1c0.6-8.1-3.1-19-10.5-30.2c-3-4.6-7.9-11-8.3-11.1C161.7,200,161.3,200.7,161,201.7z"/></g></g></g>
</svg>