<svg xmlns="http://www.w3.org/2000/svg" xml:space="preserve" viewBox="0 0 256 256">
  <path d="M141 11v3l20 9 2-1v-2c0-1-1-2-9-6l-11-4-2 1zm0 12-3 6 14 6 5-11c0-1-5-4-12-6l-1-1-3 6zm-9 7-2 4-39 87c0 3 1 4 10 8l10 4c2 0 3-2 10-17l6-13-2-3c-4-4-6-9-6-15 0-4 1-10 3-13 2-4 6-8 9-10 4-2 9-3 13-3h3l4-8 4-9c0-3-2-4-11-8l-9-4h-3z"/>
  <path d="M138 63c-7 2-14 9-15 17-2 11 5 22 16 24 8 2 14 0 20-5 3-3 4-6 5-10a21 21 0 0 0-26-26zm9 10c4 1 8 7 8 11 0 5-5 11-11 11-3 0-5-1-8-4-4-4-4-10 0-15 4-3 7-4 11-3z"/>
  <path d="M169 85a25 25 0 0 1-17 22l3 4c9 10 13 21 14 33 0 9-1 17-5 24-2 5-4 7-8 11l-3 4h1c3 2 7 8 7 10s1 2 8-3c12-9 20-24 23-40 4-24-3-47-20-65l-3-4v4zm-78 43-1 2 1 1 1 1-3 5-2 4 7 3 7 4 2-3 1-4c1-2 1-2 3-2l2-2 1-2-2-1-7-3-8-4-2-1v2zm-24 20-3 5-1 3c0 1 37 18 42 19l2 2 1-2c0-2 1-2 2-1l1 1-3 6-2 6-2-1-2-2c0-2-2-3-16-10l-15-6c-2 0-4 2-4 4-1 4 0 4 15 11l15 6h5l2 1-1 3c-1 3-1 5 1 7 4 4 12 5 22 5h6v-3l-1-10h-9a514 514 0 0 1 8-19l-7-4-8-4-1 2-2 2v-4l-39-18-5-2-1 3zm76 37-5 4c-3 2-4 4-4 8s1 5 4 8c2 3 4 3 8 3s6 0 9-3c2-3 3-4 3-8l-1-5c-1-3-3-5-5-6l-9-1zm6 6c5 2 5 9 0 12-5 2-10-2-10-7 1-5 6-7 10-5z"/>
  <path d="M161 202c-1 2-3 6-6 7-5 4-12 4-18 0l-2-1-1 2c-2 5-3 7-6 10-4 3-8 6-14 7H86l-13-2h-5v3l-1 15 1 3h56l56-1 1-4c0-8-4-19-11-30l-8-11-1 2z"/>
</svg>
