<?xml version="1.0" encoding="UTF-8"?>
<svg xmlns="http://www.w3.org/2000/svg" fill="none" viewBox="212.8 79.8 224.92 244.92">
	<path d="M424.601 147.06L325.253 202.253M325.253 202.253L225.906 147.06M325.253 202.253L325.254 313.288M430.445 249.689L430.445 154.817C430.445 150.812 430.445 148.81 429.855 147.024C429.333 145.444 428.479 143.994 427.352 142.77C426.077 141.387 424.327 140.414 420.826 138.47L334.336 90.4193C331.021 88.5778 329.363 87.657 327.608 87.296C326.055 86.9765 324.453 86.9765 322.899 87.296C321.144 87.657 319.487 88.5778 316.172 90.4193L229.681 138.47C226.181 140.414 224.43 141.387 223.156 142.77C222.028 143.994 221.175 145.444 220.653 147.024C220.062 148.81 220.062 150.812 220.062 154.817L220.062 249.689C220.062 253.694 220.062 255.696 220.653 257.482C221.175 259.062 222.028 260.512 223.156 261.736C224.43 263.119 226.181 264.091 229.681 266.036L316.172 314.086C319.487 315.928 321.144 316.849 322.899 317.21C324.453 317.529 326.055 317.529 327.608 317.21C329.363 316.849 331.021 315.928 334.336 314.086L420.826 266.036C424.327 264.091 426.077 263.119 427.352 261.736C428.479 260.512 429.333 259.062 429.855 257.482C430.445 255.696 430.445 253.694 430.445 249.689Z" stroke="#1D63ED" stroke-width="6" stroke-linecap="round" stroke-linejoin="round"/>
	<path d="M409.405 156.459L325.251 201.773L241.097 156.459L325.251 111.145L409.405 156.459Z" fill="#1D63ED"/>
	<path d="M409.405 196.326L325.251 241.639L241.097 196.326L325.251 147.775L409.405 196.326Z" fill="#1D63ED" fill-opacity="0.8"/>
	<path d="M409.405 236.192L325.251 281.506L241.097 236.192L325.251 187.642L409.405 236.192Z" fill="#1D63ED" fill-opacity="0.6"/>
	<path d="M409.405 276.059L325.251 321.373L241.097 276.059L325.251 227.509L409.405 276.059Z" fill="#1D63ED" fill-opacity="0.4"/>
</svg>