<svg xmlns="http://www.w3.org/2000/svg" xml:space="preserve" viewBox="0 0 2223 726">
  <path fill="#010101" d="M1 658V59c6-3 7-8 9-12l2-3 5-8 7-8 8-8 6-4v-1l2-1 5-6 1 2 17-9h1023l1 3 31 47 19 27 12 19c3 6 7 11 15 8h2c54 1 107-2 160 2l26-2h131c43 1 87-2 130 2l21-2h30l4-2c-1-6 3-6 7-6h264c7 0 7 0 7 7l1 1h120c4 0 8 0 11-3v31h1V65l-1-2-3-15c-4-13-12-23-22-31-5-4-12-7-18-10l-8-6h141l17 9h1l1 1 11 8 4 4 5 4 3 4 1 1h1v1l5 7c2 2 2 7 7 7v628l-9 13-6 7-10 11-3 2-5 3-5 4-6 3-4 2-8 5c-3-2-5 1-7 2H62c-2-3-3-7-7-7l-7-4-4-2-10-7-4-3-8-8-3-3-3-5-5-7v-1L1 658m631-104 18-6c3-1 4-3 4-7V222c0-3-1-5-4-6-18-7-36-13-53-21-9-3-16-3-25-1l-86 18-94 19-78 15-60 13c-3 0-4 1-4 4v237c0 3 1 4 4 5l91 18 128 25 103 21c5 1 10 2 15 0l41-15m312-70-9 41-32-160h-40l49 202h41l37-155c7 51 21 102 32 155h40l54-202h-38l-34 156-33-156h-39l-28 119m551 80-2-210h-36v84c-8-9-12-12-20-15-29-12-63 1-78 30a92 92 0 0 0-8 59c2 17 9 32 23 44 23 21 62 19 81-5l5-7 2 23h31c1 0 2-1 2-3m213-12 4 15h35c10-34 23-68 29-103l29 103h35l46-145h-37l-26 109-30-109h-31l-30 110-25-110h-38l39 130m-45-39 2-27c-2-24-12-44-33-57-15-9-30-11-46-10-30 1-55 20-65 48-5 16-6 33-2 50 4 15 12 28 24 38 35 28 107 19 120-42m-350-78c-19-22-63-24-85 9l-2-22h-32v145h38v-84c0-12 4-22 14-29 17-11 37-4 42 16l2 17v80h37v-93c-1-14-5-27-14-39m668 16 7-25-28-6c-17-3-33-1-48 9-20 14-30 49 1 68l19 9 18 8c6 4 9 9 8 16-1 6-6 11-12 12h-22c-9-1-18-5-28-8l-5 21c-2 4 0 6 4 7 16 7 33 9 51 8 10-1 19-4 28-9 25-16 27-52 2-69-7-6-16-9-25-13-5-2-11-4-16-8-9-6-8-18 2-23l9-2c11-1 21 2 31 6 1 1 3 0 4-1M928 231c18-4 33-12 41-29 7-15 8-31 5-46-4-21-17-33-36-38s-38-3-57-1v114c15 2 31 2 47 0m234 321V422h-37v145h37v-15m397-395a54 54 0 0 0-4 61c8 13 23 18 37 14 8-2 13-7 18-13l1 12h16V110h-19v47c-12-16-38-13-49 0m-381 74 2-3 18-59 7-21h-16l-3 3-14 58-1 6-16-56c-3-11-3-11-14-11-3 0-4 1-5 4l-17 60-1 2-15-65h-19l23 80c1 3 3 3 5 2 5-1 12 4 14-2l17-59 1-2 17 59c1 3 2 5 5 5l12-1m-824-24v-46c0-21 17-40 37-42l28-4c22-5 40 11 39 32v55l13-3v-62c0-25-18-41-44-38l-40 6c-28 4-46 25-46 53v67h6c5-1 8-3 7-9v-9m1462-17c-3-31-28-44-55-37s-34 36-26 58c7 22 34 33 57 22 18-8 24-23 24-43m-453-6v10c1 27 23 44 50 38 20-4 33-23 31-45-1-17-7-31-24-38-27-10-53 5-57 35m-296 30c5-7 6-16 6-25 0-16-5-30-20-38s-31-7-45 3c-13 10-17 24-16 40a40 40 0 0 0 75 20m229 6v-40l-4-18c-5-10-13-16-25-16-11 0-20 5-27 15l-1-13h-16v83h19v-48c0-5 2-10 4-14 5-7 12-9 19-7 7 1 10 6 11 13l1 10v43l1 3h18v-11m214-71c-16-5-30-3-44 4l4 12c8-4 15-6 24-5 10 0 16 6 15 18h-10c-10 1-21 3-29 10-15 11-13 35 3 43 11 5 26 3 35-6l3-3 1 9h16v-30l-1-29c-1-11-6-19-17-23m204-13c5-8 13-7 21-5l1-16c-11-3-21-3-30 2-13 8-15 22-15 36h-11v16h11v66h21v-66h18v-16h-19l3-17m-391 20v75h18V110h-18v46m527 6-3 5-1-1v-13h-18v82h21v-15l1-33c1-11 9-16 19-16h6v-16c0-3-2-4-5-4-8 0-14 4-20 11m-727 223c3 11 13 17 26 15 11-3 17-13 15-24s-13-18-25-16c-11 2-18 12-16 25M525 183v-20c-1-22-20-37-41-31l-3 2v10l14 2c11 3 19 14 19 25v19l8-1c3-1 4-2 3-6m-111-21c-8 16-2 33-4 50l6-2c5 0 6-2 5-6v-16c0-16 8-28 23-36l3-3v-11c-11 0-25 10-33 24z"/>
  <path fill="#101010" d="m1137 78-19-27-31-47-1-3h941l8 6c6 3 13 6 18 10 10 8 18 18 22 31l3 15 1 2v68h-1V68l-14 1h-929l2 9z"/>
  <path fill="#FEFEFE" d="m631 554-40 15c-5 2-10 1-15 0l-103-21-128-25-91-18c-3-1-4-2-4-5V263c0-3 1-4 4-4l60-13 78-15 94-19 86-18c9-2 16-2 25 1 17 8 35 14 53 21 3 1 4 3 4 6v319c0 4-1 6-4 7l-19 6M484 374h11c4 1 5-1 5-5v-74c0-4-1-5-5-4l-86 11c-4 1-5 2-5 6v61c0 4 1 5 6 5h74m-69 7h-7c-3 0-4 1-4 4v62c0 3 1 5 4 5l86 12c5 1 6 0 6-5v-78h-85m-18-29v-47h-1l-69 9-2 4-1 52c0 3 1 4 4 4h65c4 0 4-1 4-4v-18m-72 30-1 2v53c0 3 2 4 4 4l44 6 25 3v-68l-2-1-70 1z"/>
  <path fill="#090909" d="m1137 78-2-9h929l14-1v34c-3 3-7 3-11 3h-120l-1-1c0-7 0-7-7-7h-264c-4 0-8 0-7 6l-4 2h-30l-21 2c-43-4-87-1-130-2h-131l-26 2c-53-4-106-1-160-2h-2c-8 3-12-2-15-8l-12-19z"/>
  <path fill="#FCFCFC" d="m944 484 28-119h39l33 156 34-156h38l-54 202h-40c-11-53-25-104-32-155l-37 155h-41l-49-202h40l32 160 9-41z"/>
  <path fill="#FDFDFD" d="m1495 565-2 2h-31l-2-23-5 7c-19 24-58 26-81 5a71 71 0 0 1-23-44c-4-20-2-40 8-59 15-29 49-42 78-30 8 3 12 6 20 15v-84h36l2 211m-43-41c8-18 6-35 3-53-2-13-14-22-26-23-16-2-28 4-35 18-9 17-9 35-2 54 5 12 15 19 28 20 14 1 24-4 32-16z"/>
  <path fill="#FCFCFC" d="m1707 552-38-130h38l25 110 30-110h31l30 109 26-109h37l-46 145h-35l-29-103c-6 35-19 69-29 103h-35l-5-15zm-44-38c-13 60-85 69-120 41a67 67 0 0 1-24-38c-4-17-3-34 2-50 10-28 35-47 65-48 16-1 31 1 46 10 21 13 31 33 33 57l-2 28m-101-50c-9 19-9 38-2 57 6 13 15 22 31 22 15 0 24-8 30-21 8-19 8-37 0-55-5-12-14-20-28-21-13 0-24 5-31 18z"/>
  <path fill="#FDFDFD" d="M1313 435c9 12 13 25 14 39v93h-37v-80l-2-17c-5-20-25-27-42-16-10 7-14 17-14 29v84h-38V422h32l2 22c22-33 66-31 85-9z"/>
  <path fill="#FBFBFB" d="M1981 451c-1 1-3 2-4 1-10-4-20-7-31-6l-9 2c-10 5-11 17-2 23 5 4 11 6 16 8 9 4 18 7 25 13 25 17 23 53-2 69-9 5-18 8-28 9-18 1-35-1-51-8-4-1-6-3-4-7l5-21c10 3 19 7 28 8h22c6-1 11-6 12-12 1-7-2-12-8-16l-18-8-19-9c-31-19-21-54-1-68 15-10 31-12 48-9l28 6-7 25z"/>
  <path fill="#F7F7F7" d="M928 231c-16 2-32 2-47 0V117c19-2 38-4 57 1s32 17 36 38c3 15 2 31-5 46-8 17-23 25-41 29m25-38c1-9 3-17 3-26 0-18-9-30-24-35-11-4-22-4-33-2v88h18c16-1 29-8 36-25z"/>
  <path fill="#FEFEFE" d="M1162 553v14h-37V422h37v131z"/>
  <path fill="#F7F7F7" d="M1560 157c10-13 36-16 48 0v-47h19v121h-16l-1-12c-5 6-10 11-18 13-14 4-29-1-37-14-12-18-9-45 5-61m35 60c8-3 12-9 13-17v-21c-1-10-7-17-16-18-9-2-18 3-22 12-5 9-5 19-2 29 3 11 13 20 27 15zm-417 14-12 1c-3 0-4-2-5-5l-17-59-1 2-17 59c-2 6-9 1-14 2-2 1-4 1-5-2l-23-80h19l15 65 1-2 17-60c1-3 2-4 5-4 11 0 11 0 14 11l16 56 1-6 14-58 3-3h16l-7 21a25530 25530 0 0 1-20 62z"/>
  <path fill="#F6F6F6" d="M354 208v8c1 6-2 8-7 9h-6v-67c0-28 18-49 46-53l40-6c26-3 44 13 44 38v62l-13 3v-55c1-21-17-37-39-32l-28 4c-20 2-37 21-37 42v47z"/>
  <path fill="#FAFAFA" d="M1816 190c0 20-6 35-24 43-23 11-50 0-57-22-8-22-1-51 26-58s52 6 55 37m-42 32c8-1 14-5 17-12 4-11 4-22 0-32-4-7-9-12-17-12-8 1-14 5-17 12-4 10-5 20-1 30 3 8 8 13 18 14z"/>
  <path fill="#F9F9F9" d="M1363 184c4-30 30-45 57-35 17 7 23 21 24 38 2 22-11 41-31 45-27 6-49-11-50-38v-10m60 19c3-11 3-21-1-31-4-7-10-12-19-12s-14 5-18 12c-5 10-5 19-2 29 2 11 10 18 19 19s16-5 21-16v-1zm-356 12a41 41 0 0 1-47 17c-16-5-27-19-28-38-1-16 3-30 16-40 14-10 30-11 45-3s20 22 20 38c0 9-1 18-6 26m-21-1c10-12 12-31 4-44-9-14-27-14-35 0-7 13-7 26 0 39 6 13 20 15 31 5z"/>
  <path fill="#F7F7F7" d="M1296 221v10h-18l-1-3v-43l-1-10c-1-7-4-12-11-13-7-2-14 0-19 7-2 4-4 9-4 14v48h-19v-83h16l1 13c7-10 16-15 27-15 12 0 20 6 25 16l4 18v41zm214-72c11 4 16 12 17 23l1 29v30h-16l-1-9-3 3c-9 9-24 11-35 6-16-8-18-32-3-43 8-7 19-9 29-10h10c1-12-5-18-15-18-9-1-16 1-24 5l-4-12c14-7 28-9 44-4m-6 41-18 4c-6 3-9 9-8 15s5 10 10 11c10 2 21-6 21-17l1-9c0-3-1-5-6-4z"/>
  <path fill="#FBFBFB" d="m1714 137-3 16h19v16h-18v66h-21v-66h-11v-16h11c0-14 2-28 15-36 9-5 19-5 30-2l-1 16c-8-2-16-3-21 6z"/>
  <path fill="#FAFAFA" d="M1323 156v-46h18v121h-18v-75zm527 6c6-7 12-11 20-11 3 0 5 1 5 4v16h-6c-10 0-18 5-19 16l-1 33v15h-21v-82h18v13l1 1 3-5zm-727 222c-2-12 5-22 16-24 12-2 23 5 25 16s-4 21-15 24c-13 2-23-4-26-16z"/>
  <path fill="#F7F7F7" d="M525 184c1 3 0 4-3 5l-8 1v-19c0-11-8-22-19-25l-14-2v-10l3-2c21-6 40 9 41 31v21z"/>
  <path fill="#F6F6F6" d="M415 161c7-13 21-23 32-23v11l-3 3c-15 8-23 20-23 36v16c1 4 0 6-5 6l-6 2c2-17-4-34 5-51z"/>
  <path fill="#A7A7A7" d="M2211 32h1-1z"/>
  <path fill="#030303" d="M484 374h-74c-5 0-6-1-6-5v-61c0-4 1-5 5-6l86-11c4-1 5 0 5 4v74c0 4-1 6-5 5h-11zm-69 7h85v78c0 5-1 6-6 5l-86-12c-3 0-4-2-4-5v-62c0-3 1-4 4-4h7z"/>
  <path fill="#040404" d="M397 353v17c0 3 0 4-4 4h-65c-3 0-4-1-4-4l1-52 2-4 69-9h1v48zm-71 28h69l2 1v68l-25-3-44-6c-2 0-4-1-4-4v-53l2-3z"/>
  <path fill="#010101" d="M1452 524c-8 12-18 17-32 16-13-1-23-8-28-20-7-19-7-37 2-54 7-14 19-20 35-18 12 1 24 10 26 23 3 18 5 35-3 53zm110-60c7-13 18-18 31-18 14 1 23 9 28 21 8 18 8 36 0 55-6 13-15 21-30 21-16 0-25-9-31-22-7-19-7-38 2-57zM953 193c-7 17-20 24-36 25h-18v-88c11-2 22-2 33 2 15 5 24 17 24 35 0 9-2 17-3 26z"/>
  <path fill="#030303" d="M1595 217c-14 5-24-4-27-15-3-10-3-20 2-29 4-9 13-14 22-12 9 1 15 8 16 18v21c-1 8-5 14-13 17zm179 5c-10-1-15-6-18-14-4-10-3-20 1-30 3-7 9-11 17-12 8 0 13 5 17 12 4 10 4 21 0 32-3 7-9 11-17 12zm-351-19v1c-5 11-12 17-21 16s-17-8-19-19c-3-10-3-19 2-29 4-7 9-12 18-12s15 5 19 12c4 10 4 20 1 31zm-377 11c-11 10-25 8-31-5-7-13-7-26 0-39 8-14 26-14 35 0 8 13 6 32-4 44z"/>
  <path fill="#090909" d="M1505 190c4-1 5 1 5 4l-1 9c0 11-11 19-21 17-5-1-9-5-10-11s2-12 8-15l19-4z"/>
</svg>
